<svg xmlns="http://www.w3.org/2000/svg" width="432" height="768" viewBox="0 0 432 768">
  <defs>
    <linearGradient id="gold" x1="0" y1="0" x2="1" y2="1">
      <stop offset="0" stop-color="#fff0a8"/>
      <stop offset="1" stop-color="#d58a34"/>
    </linearGradient>
    <linearGradient id="sky" x1="0" y1="0" x2="0" y2="1">
      <stop offset="0" stop-color="#8fd8ff"/>
      <stop offset="0.48" stop-color="#bdeaff"/>
      <stop offset="1" stop-color="#77c56d"/>
    </linearGradient>
    <linearGradient id="steel" x1="0" y1="0" x2="1" y2="1">
      <stop offset="0" stop-color="#eff8ff"/>
      <stop offset="1" stop-color="#84a9c8"/>
    </linearGradient>
  </defs>

  <rect width="432" height="768" fill="url(#sky)"/>
  <path d="M0 230 C90 170 170 210 238 158 C310 106 372 142 432 112 L432 768 L0 768 Z" fill="#6fb669"/>
  <path d="M0 290 C110 230 190 265 270 210 C340 165 390 184 432 160 L432 768 L0 768 Z" fill="#4f9e67"/>
  <path d="M-40 768 C80 590 168 510 232 400 C286 488 348 598 472 768 Z" fill="#bdad8c"/>
  <path d="M-20 768 C92 604 168 534 226 430 C278 510 336 610 452 768 Z" fill="#d8c6a2"/>
  <path d="M64 414 L368 414" stroke="#e8d5ae" stroke-width="8" opacity="0.7"/>
  <path d="M55 455 L378 455" stroke="#b29a77" stroke-width="4" opacity="0.55"/>
  <circle cx="68" cy="92" r="34" fill="#fff5b5" opacity="0.95"/>
  <g opacity="0.55" fill="#f4ffff">
    <ellipse cx="274" cy="84" rx="46" ry="14"/>
    <ellipse cx="318" cy="96" rx="58" ry="16"/>
    <ellipse cx="142" cy="122" rx="52" ry="15"/>
  </g>
</svg>