<svg xmlns="http://www.w3.org/2000/svg" width="180" height="220" viewBox="0 0 180 220">
  <defs>
    <linearGradient id="gold" x1="0" y1="0" x2="1" y2="1">
      <stop offset="0" stop-color="#fff0a8"/>
      <stop offset="1" stop-color="#d58a34"/>
    </linearGradient>
    <linearGradient id="sky" x1="0" y1="0" x2="0" y2="1">
      <stop offset="0" stop-color="#8fd8ff"/>
      <stop offset="0.48" stop-color="#bdeaff"/>
      <stop offset="1" stop-color="#77c56d"/>
    </linearGradient>
    <linearGradient id="steel" x1="0" y1="0" x2="1" y2="1">
      <stop offset="0" stop-color="#eff8ff"/>
      <stop offset="1" stop-color="#84a9c8"/>
    </linearGradient>
  </defs>

  <ellipse cx="90" cy="202" rx="58" ry="12" fill="#07101b" opacity="0.45"/>
  <path d="M45 93 C22 128 22 168 50 196 L72 154 Z" fill="#426a94"/>
  <path d="M135 93 C158 128 158 168 130 196 L108 154 Z" fill="#2f557c"/>
  <path d="M58 72 C78 46 108 46 126 72 L138 156 C126 185 54 185 42 156 Z" fill="#70472f"/>
  <path d="M60 79 L120 79 L110 155 L70 155 Z" fill="url(#gold)"/>
  <rect x="62" y="108" width="56" height="18" fill="#7bd7ff" opacity="0.95"/>
  <circle cx="90" cy="47" r="28" fill="#f0d2a8"/>
  <path d="M58 45 C64 17 108 6 129 35 C119 26 93 32 79 40 C74 49 66 52 58 45 Z" fill="#1e2432"/>
  <path d="M132 92 L166 58" stroke="url(#steel)" stroke-width="8" stroke-linecap="round"/>
  <path d="M149 69 L174 45" stroke="#79d7ff" stroke-width="4" stroke-linecap="round"/>
  <path d="M48 154 L20 204" stroke="#ffe181" stroke-width="8" stroke-linecap="round"/>
  <path d="M16 205 L34 215" stroke="#7bd7ff" stroke-width="5" stroke-linecap="round"/>
</svg>